<svg xmlns="http://www.w3.org/2000/svg" width="183" height="201" viewBox="0 0 183 201"><g><g clip-path="url(#clip-6479)" opacity=".1"><path fill="#fff" d="M114.468 17.347c15.042-5.836 25.132-3.274 35.413.921 6.327-2.964 13.473-9.743 17.539-14.125l3.882-4.454c-.012 8.783-1.66 16.258-5.923 23.04-.947 1.507-1.752 3.368-3.17 4.627l.034.094c8.45-3.207 14.037-9.612 19.917-14.135l.035.096c-1.446 6.84-4.097 14.214-7.651 20.11l-4.317 7.101c3.42 8.954 6.332 17.627 7.434 25.804 6.4 47.534-8.494 86.879-44.739 114.718-13.015 9.996-36.08 20.62-54.466 22.626-9.118.995-17.526 1.427-25.748.93-4.567-.276-8.896-.8-13.163-1.645l-4.203-.833c3.841-1.284 8.672-1.869 12.667-4.118 3.615-2.034 7.443-3.258 10.701-5.341 8.128-5.196 15.034-10.652 20.341-17.102 2.573-3.125 6.718-7.216 8.029-10.844-4.362 1.694-8.718 2.137-12.404 2.184-14.29.179-24.672-5.336-34.004-15.926 3.986-.99 15.391-4.048 17.17-7.18-4.921 1.509-10.589.417-14.668-.442-12.516-2.634-24.743-10.274-30.731-26.748 1.568.143 3.137.286 4.705.431 2.95.137 5.762-.239 9.04-.732 1.387-.207 4.24-.394 5.516-1.488-.063.025-.127.048-.19.071-2.813-1.571-6.58-1.92-9.464-3.653C12.537 105.609 1.823 95.354.215 79.04c-.408-4.137-.078-8.046.449-11.731l.225.025c1.345 1.314 3.47 1.859 5.034 2.797 4.854 2.91 10.335 5.121 15.731 6.862 18.386 5.932 33.767 8.074 56.284 5.569 5.712-.636 12.128-1.876 18.386-4.167-3.642-4.479-6.127-12.98-6.568-18.449-1.108-13.752 3.142-25.522 12.457-34.417 2.228-2.127 4.86-4.048 7.697-5.857l4.558-2.326z"/></g></g></svg>