<svg xmlns="http://www.w3.org/2000/svg" width="39" height="31" viewBox="0 0 39 31"><g><g><path fill="#ff0036" d="M26.527 0c3.1-.053 4.749 1.053 6.324 2.459 1.338-.112 3.076-.844 4.1-1.353l.995-.534C37.361 2.12 36.568 3.33 35.35 4.25c-.27.205-.54.48-.879.611v.02c1.737-.019 3.169-.786 4.53-1.202v.02c-.715 1.112-1.682 2.24-2.714 3.05l-1.25.971c.023 1.801-.027 3.519-.37 5.032-1.999 8.797-7.293 14.769-15.675 17.328-3.01.918-7.873 1.296-11.32.457-1.71-.416-3.255-.885-4.705-1.506a18.859 18.859 0 0 1-2.264-1.144L0 27.468c.778.023 1.688.232 2.557.096.787-.125 1.558-.092 2.284-.248 1.81-.39 3.417-.904 4.802-1.697.67-.384 1.69-.836 2.166-1.391-.899.015-1.713-.19-2.381-.42-2.588-.894-4.095-2.54-5.075-5.013.784.084 3.044.284 3.572-.152-.988-.054-1.937-.614-2.616-1.03-2.082-1.276-3.78-3.416-3.767-6.71.273.128.547.255.82.381.523.216 1.055.332 1.679.458.263.054.79.205 1.093.095h-.04c-.402-.459-1.059-.765-1.463-1.257-1.336-1.627-2.588-4.13-1.796-7.11.2-.757.52-1.424.859-2.04l.039.018c.155.32.502.554.722.82.682.829 1.524 1.574 2.381 2.231 2.922 2.238 5.553 3.613 9.78 4.632 1.072.257 2.31.455 3.591.457-.36-1.026-.244-2.685.04-3.678.711-2.498 2.258-4.297 4.528-5.262A9.792 9.792 0 0 1 25.55.115L26.527 0z"/></g></g></svg>